<svg width="98" height="97" viewBox="0 0 98 97" fill="none" xmlns="http://www.w3.org/2000/svg">
<path fill-rule="evenodd" clip-rule="evenodd" d="M2.28911 33.8062C0.80223 38.4411 0 43.3778 0 48.5C0 75.2858 21.938 97 49 97C76.062 97 98 75.2858 98 48.5C98 21.7142 76.062 0 49 0C44.035 0 39.2424 0.730921 34.7262 2.08998L2.28911 33.8062Z" fill="rgb(40,40,40)"/>
<g filter="url(#filter0_d_0_1)">
<path d="M50.1386 17.4142C52.8821 17.6888 55.1484 18.2186 57.6733 19.1997C60.4764 20.2592 60.8541 20.4751 60.8541 20.9263C60.8541 21.3384 60.1782 22.81 59.4824 23.948C59.0251 24.6543 56.3611 27.0089 55.9834 27.0089C55.8641 27.0089 55.6653 26.7538 55.546 26.4399C55.0292 25.0664 52.3055 24.5955 45.5462 24.674L40.6754 24.7524L40.1387 23.7125C39.7609 22.9669 39.6218 22.4764 39.7013 22.0447C39.8405 21.201 40.576 19.1212 40.8345 18.8073C41.2321 18.3167 42.4647 17.8458 43.8563 17.6104C46.6793 17.1591 47.4746 17.1395 50.1386 17.4142ZM34.4727 21.5542C34.3733 23.065 34.433 23.6733 34.8107 25.1056C35.0493 26.0671 35.2083 26.8912 35.1487 26.9304C35.089 26.9893 34.3733 27.2836 33.5582 27.5779C30.7551 28.6178 27.5345 30.8939 26.0037 32.9345C24.8506 34.4649 22.7035 38.4284 21.292 41.607C20.5962 43.1767 20.298 43.628 19.6618 44.0596C19.2443 44.3343 18.8467 44.7856 18.787 45.0603C18.7075 45.335 18.4292 46.061 18.1509 46.6692C17.7533 47.611 17.5743 47.8073 17.1767 47.8073C16.5604 47.8073 15.7453 47.3952 15.1489 46.7477C14.6718 46.2572 14.6718 46.2572 15.0098 45.0995C15.1887 44.4717 15.3278 43.4514 15.3278 42.8431C15.3278 42.2152 15.5068 41.038 15.7453 40.1943C15.964 39.3702 16.2821 38.1733 16.461 37.5454C17.0574 35.1909 19.0654 31.561 20.9143 29.4419C22.7035 27.3817 25.3078 24.8506 26.3416 24.1638C26.8983 23.791 27.7333 23.2024 28.2104 22.8688C29.2243 22.1625 33.936 19.7491 34.3336 19.7491C34.5523 19.7491 34.5721 20.0826 34.4727 21.5542ZM58.21 30.3445C58.4884 31.404 59.2637 32.856 59.7607 33.268C60.6553 33.9548 61.5301 34.0725 63.697 33.8566C65.9833 33.6212 65.9435 33.6016 66.1423 35.2497C66.202 35.8384 66.4008 36.8194 66.5399 37.4081C66.699 37.9967 66.8382 38.9974 66.8382 39.6645C66.8779 40.724 66.8779 40.7633 66.9972 40.0569L67.1165 39.2721L68.2497 39.1543C69.7009 38.9974 70.5558 38.4872 71.2914 37.3688C72.5836 35.3871 73.0806 34.563 73.2198 34.2098C73.3788 33.837 73.8361 33.8566 75.6452 34.3079L76.4205 34.4845L75.7048 35.2105C75.3271 35.6029 74.5915 36.7606 74.0746 37.7416C73.1204 39.5664 72.3649 40.5474 71.8679 40.5474C71.7287 40.5474 71.4305 40.881 71.2119 41.2734L70.8142 42.019L70.7944 41.4304C70.7944 41.0576 70.5558 40.5671 70.1383 40.0962C69.522 39.3898 69.4823 39.3702 69.0449 39.6645C68.8063 39.8411 68.4087 40.3512 68.19 40.8025C67.1364 42.8627 66.7785 43.2355 65.5857 43.5691C64.7905 43.7849 64.3531 44.04 64.0549 44.452C63.6374 45.0211 63.6374 45.1584 63.6374 58.2261C63.6374 72.7457 63.6374 72.7064 62.4048 74.178C61.2319 75.5907 57.9516 76.8857 54.393 77.3174C49.5223 77.9257 47.5143 77.9649 43.6575 77.5332C40.6953 77.1801 38.588 76.7288 35.5662 75.7673C33.2401 75.0217 28.449 72.9811 28.449 72.7261C28.449 72.628 28.27 72.5102 28.0513 72.4318C27.8327 72.3729 27.1965 72.0001 26.62 71.6077C22.3854 68.7626 19.0057 64.3086 17.1767 59.1286C15.9441 55.6361 16.1032 53.5562 17.6539 52.8303C18.0316 52.6537 19.0654 52.0258 19.9401 51.4372C20.8149 50.8485 21.6498 50.358 21.8089 50.358C22.0673 50.358 22.1468 50.77 22.3655 53.105C22.624 55.5968 23.777 58.7951 25.3675 61.2477C25.785 61.8952 26.9778 63.2687 28.0315 64.289C29.7412 65.9568 30.1984 66.2707 32.2262 67.2714C37.1566 69.6652 40.6357 70.293 47.8921 70.1165C52.5441 70.0184 54.0948 69.7829 55.6852 68.9981C57.554 68.0759 57.6733 67.4087 57.6733 57.9121C57.6733 49.5732 57.6335 49.3377 56.2617 48.3763C55.6256 47.925 55.4069 47.9054 52.0868 47.8465C48.6078 47.768 48.5879 47.7876 48.0113 48.2585C47.4547 48.7294 47.4547 48.7687 47.3354 51.496C47.2758 53.3797 47.1565 54.3411 46.9776 54.5177C46.5799 54.9101 43.6973 54.8512 42.3056 54.4196C40.9538 54.0075 39.582 52.8695 38.926 51.6334C38.3693 50.5542 38.2302 47.3167 38.6675 45.2958C39.085 43.2748 39.5423 42.6665 41.1327 41.8621C42.8623 40.9987 42.9021 40.9987 47.3951 40.5474C51.232 40.155 53.1405 39.8607 53.6972 39.5664C53.8761 39.4683 54.1942 38.8796 54.393 38.2518C54.7111 37.3296 54.7906 36.5251 54.8105 33.8959L54.8303 30.6976L56.0033 30.109C56.6594 29.7951 57.2558 29.4419 57.375 29.3438C57.6136 29.1083 58.0311 29.6185 58.21 30.3445ZM80.3768 36.6821C81.5696 38.1144 82.3648 39.7626 82.7226 41.5285C82.9215 42.6273 82.9215 42.9805 82.6431 44.0008C82.3847 44.9818 82.325 46.2768 82.325 50.5935C82.325 59.1679 81.6889 62.5035 79.2237 66.5847C79.0249 66.9182 78.3291 67.4872 77.6531 67.8797L76.4603 68.5664L76.3609 56.4013L76.2615 44.2558L75.7645 43.883C75.4265 43.628 74.9494 43.4906 74.2735 43.4906C73.7367 43.4906 73.0607 43.4317 72.8023 43.3533C72.3848 43.2552 72.345 43.1571 72.4445 42.4311C72.6234 41.0968 74.3331 38.0752 75.3669 37.2511C75.8639 36.8783 76.4404 36.3485 76.6591 36.0935C76.8778 35.858 77.3152 35.5244 77.6332 35.3675C78.4682 34.9554 79.1839 35.289 80.3768 36.6821Z" fill="white"/>
</g>
<defs>
<filter id="filter0_d_0_1" x="10.7714" y="17.2339" width="76.0916" height="68.5872" filterUnits="userSpaceOnUse" color-interpolation-filters="sRGB">
<feFlood flood-opacity="0" result="BackgroundImageFix"/>
<feColorMatrix in="SourceAlpha" type="matrix" values="0 0 0 0 0 0 0 0 0 0 0 0 0 0 0 0 0 0 127 0" result="hardAlpha"/>
<feOffset dy="4"/>
<feGaussianBlur stdDeviation="2"/>
<feComposite in2="hardAlpha" operator="out"/>
<feColorMatrix type="matrix" values="0 0 0 0 0 0 0 0 0 0 0 0 0 0 0 0 0 0 0.25 0"/>
<feBlend mode="normal" in2="BackgroundImageFix" result="effect1_dropShadow_0_1"/>
<feBlend mode="normal" in="SourceGraphic" in2="effect1_dropShadow_0_1" result="shape"/>
</filter>
</defs>
</svg>
